<svg width="6" height="18" viewBox="0 0 6 18" fill="none" xmlns="http://www.w3.org/2000/svg">
<g opacity="0.5">
<path d="M3.04797 10C3.65156 10 4.14087 9.55228 4.14087 9C4.14087 8.44772 3.65156 8 3.04797 8C2.44438 8 1.95508 8.44772 1.95508 9C1.95508 9.55228 2.44438 10 3.04797 10Z" stroke="white" stroke-width="2" stroke-linecap="round" stroke-linejoin="round"/>
<path d="M3.04797 3C3.65156 3 4.14087 2.55228 4.14087 2C4.14087 1.44772 3.65156 1 3.04797 1C2.44438 1 1.95508 1.44772 1.95508 2C1.95508 2.55228 2.44438 3 3.04797 3Z" stroke="white" stroke-width="2" stroke-linecap="round" stroke-linejoin="round"/>
<path d="M3.04797 17C3.65156 17 4.14087 16.5523 4.14087 16C4.14087 15.4477 3.65156 15 3.04797 15C2.44438 15 1.95508 15.4477 1.95508 16C1.95508 16.5523 2.44438 17 3.04797 17Z" stroke="white" stroke-width="2" stroke-linecap="round" stroke-linejoin="round"/>
</g>
</svg>
